<?xml version="1.0" encoding="utf-8"?>
<svg version="1.1" xmlns="http://www.w3.org/2000/svg" xmlns:xlink="http://www.w3.org/1999/xlink" x="0px" y="0px" viewBox="0 0 2272 1872" xml:space="preserve">
<style type="text/css">
	.st0{fill:#D5D3EA;}
	.st1{fill:#201E51;}
	.st2{fill:#2C2C75;}
	.st3{fill:#8484AF;}
	.st4{fill:#575A8E;}
	.st5{fill:#EF5EA2;}
	.st6{fill:#AF3874;}
	.st7{fill:#FEC83D;}
	.st8{fill:#FFFFFF;}
	.st9{fill:#EC5946;}
	.st10{fill:#202B35;}
	.st11{fill:#440235;}
	.st12{fill:#8889C2;}
	.st13{fill:#656796;}
	.st14{fill:#EF7C2E;}
	.st15{fill:#151D23;}
	.st16{fill:#8681BD;}
</style>
  <g id="object">
	<g>
		<path class="st1" d="M2068,1625.5H180.6c30.2-27.9,41-76.6,35.4-117.3s-23.1-78.7-37.6-117.2c-42.8-113.3-54.9-256.3,30.7-342
			c58.6-58.7,151.2-77.3,201.2-143.5c70.6-93.5,22.2-229.2,53.6-342.1C499.8,433.8,657.4,353.3,783.6,400
			c27.6,10.2,53.6,25.5,82.5,30.4C935,442,997.6,394,1057.8,358.7c74.6-43.7,158.8-70.8,244.9-78.8c54.2-5,111.7-1.8,158.4,26.1
			c104.2,62.1,114.6,217,210.7,291.1c58.7,45.3,138.1,51.6,205.8,81.9c97.9,43.9,170.4,149.8,156.6,256.2
			c-7.9,60.6-41.5,119-31.2,179.2c11,63.7,67.3,108.1,102,162.7C2169,1377.6,2154.8,1543.9,2068,1625.5z" />
    <path class="st2" d="M400.3,1195.7c-27.1-9.4-57.2,11.7-67.7,38.4s-6.5,56.7-1.5,84.9c19.3,108.7,52.8,218.6,118.3,306.4h129.8
			c-27.4-140.7-57.8-286.6-144.7-400.5C425.1,1212.9,414.6,1200.7,400.3,1195.7z" />
    <path class="st1" d="M525.2,1610.3c-8.9-24.9-19.7-49.3-29.3-74c-9.7-25-19.4-50.1-28.8-75.2c-18.6-49.7-36.5-99.7-53.8-149.9
			c-9.8-28.5-19.9-56.8-29.6-85.4c-1.7-5-9.5-3-8,2.2c29.9,102.5,64.8,203.4,103.5,302.8c11,28.2,21.3,57,34,84.4
			C516.4,1622,527.7,1617.3,525.2,1610.3z" />
    <path class="st2" d="M619.6,1084c-22.8-4.5-41.2,18.5-50.6,39.8c-35.2,79.6-29.9,171.4-10.5,256.3
			c18.9,82.8,50.3,162.4,68.6,245.4h108.2c-0.4-173.4-5-352.5-82.1-507.4C645.8,1103.3,635.8,1087.2,619.6,1084z" />
    <path class="st1" d="M681.5,1569.7c-1-8.6-2.2-17.2-3.3-25.7c-2.1-16.6-4.2-33.1-6.6-49.6c-2.4-16.2-5.6-32.3-10.1-48.1
			c-4.5-15.9-9.7-31.7-12.8-47.9c-11-58.8,4.3-121.2-21.5-177.3c-7-15.2-16.3-29-19.6-45.6c-3.2-16.3-0.3-33.7,7.4-48.3
			c1.6-3.1-2.7-5.6-4.6-2.7c-7.5,11.6-11.9,24.8-12.8,38.5c-0.9,15,3.1,28.8,9.4,42.3c6.5,14,13.3,27.3,17,42.4
			c3.6,14.9,5,30.1,5.6,45.4c1,30.8-1,61.8,2.3,92.6c3.6,33.1,16.4,64,22.3,96.6c3.4,18.5,5.5,37.2,7.9,55.8
			c1.3,9.9,2.5,19.8,3.8,29.7c1.3,9.8,1.9,20.1,4.8,29.5c2.2,7.3,12.9,5.8,13.2-1.8C684.2,1586.9,682.6,1578.3,681.5,1569.7z" />
    <path class="st2" d="M2090,1416.6c-2.2-12.3-6-25.1-15.2-33.7c-19.2-18-50.8-9.4-73.1,4.6c-81.8,51.2-117.1,149.5-156.7,238h170.7
			c8.2-9.2,16-18.7,23.3-28.6C2077.1,1545.2,2101.1,1479.8,2090,1416.6z" />
    <path class="st2" d="M952.9,1523.3c-3.8-11.7-9.3-23.1-10.2-35.4c-1.9-27.1,18.5-49.8,33.3-72.5c17.1-26.1,28.1-58.3,20.3-88.5
			c-8.1-31.6-35.7-57.5-35.8-90.1c-0.2-55.2,77.6-92.8,65.8-146.7c-5.4-24.6-28.1-40.9-49.1-54.8c-24.6,23.5-49.2,47-73.8,70.6
			c-13.9,13.3-28.6,28.1-30.7,47.2c-3,27,20.5,51.2,19.1,78.4c-2.3,44.4-64.1,60.3-81.5,101.2c-20,47,27.1,102.1,9.2,149.8
			c-5.3,14.1-15.7,25.6-25.1,37.4c-24.7,31.2-43.2,67.4-54,105.7h199.9C958,1594.9,963.7,1557.1,952.9,1523.3z" />
    <path class="st1" d="M966.6,1203.7c3.1-3.2-1.8-8-4.8-4.8c-9.3,9.6-18,19.3-25.1,30.7c-7.3,11.6-12.7,24.3-16.5,37.4
			c-3.8,12.9-5.5,26.6-5.6,40c-0.1,15.7,2.6,31.2,4.4,46.8c1.7,15.2,2.8,31-1.5,45.9c-3.7,12.7-11,24-17.6,35.4
			c-6.5,11.1-13,22.9-15.4,35.7c-3.1,15.8,0.7,31.7-0.9,47.6c-1.4,15.1-7.7,29.5-15.3,42.5c-4.2,7.1-8.8,13.9-13.6,20.5
			c-4.8,6.6-10.1,12.8-14.1,20c-3.8,6.9,5,13.5,10.7,8.3c10.3-9.4,18.6-21.9,26.1-33.6c7.7-12,14.3-24.9,18.2-38.6
			c4.2-14.7,3.8-29.2,3-44.3c-0.7-14.2,1.8-26.7,8.1-39.5c5.8-11.7,13-22.7,18.5-34.6c6.3-13.7,9.4-27.8,9.4-42.9
			c-0.1-29.9-9.3-59-5.2-89.1C933.2,1257.5,945.6,1225.4,966.6,1203.7z" />
    <path class="st2" d="M1871.5,1218.7c-2.4-36.7-16-80.4-51.8-88.6c-22.3-5.2-45.3,6.3-62.6,21.2c-66.8,57.7-72.4,157.5-73,245.8
			c-0.5,76.1-0.9,152.3-1.4,228.4h79C1822.3,1496.3,1880.9,1360.4,1871.5,1218.7z" />
    <path class="st2" d="M1625.3,1497.1c4.3-29,14.4-59.6,3-86.6c-15.5-36.3-65.9-54.3-68.3-93.7c-1.7-29.1,25.2-53.2,26.9-82.4
			c2.9-49.9-67-82.6-61.8-132.4c-29.2-1.7-44.5,35.6-41.8,64.7c2.8,29.1,14.4,59.4,3.5,86.5c-3.1,7.7-7.9,14.7-9.5,22.8
			c-6.9,35.2,48.2,62.4,37.4,96.6c-4.2,13.4-17.5,21.8-24,34.1c-25.2,47.3,59.8,98.3,39.6,147.9c-6.4,15.8-22.4,26-29.9,41.3
			c-4.6,9.3-5.7,19.2-4.6,29.4h150.7C1626.7,1586.1,1618.8,1540.7,1625.3,1497.1z" />
    <path class="st1" d="M1595.1,1506c-4.9-15.3-13.3-29.4-17.6-44.9c-4.6-16.6-0.3-32.8,0.7-49.5c1-16-3.6-30.4-12.4-44
			c-7.9-12.3-18.2-23.5-24.2-36.9c-13.4-30.2,0.1-64.2-2.2-95.6c-1.3-18.1-8.4-34.4-15.2-51.1c-6.5-16-12.7-33-6.7-49.9
			c1-2.7-3.6-4.6-5-2c-14.8,28.9,6.3,58.4,13.4,86.3c8.1,32-6.4,64.3-2.3,96.5c2,15.5,8.5,28.8,17.3,41.9
			c8.2,12.1,17.9,24.1,21,38.5c3.6,16.6-2.9,33.7-3,50.3c-0.1,16.5,6.5,31.5,13,46.5c3.7,8.4,7.2,17,9.2,25.9c2.1,9.5,2,19.3,1,29
			c-1,9.5-3.4,18.9-6.2,28c-3,10-7.1,19.7-8.5,29.9c-1,6.9,10.1,8.7,13.4,3.4c4.7-7.7,7.4-16.4,10-24.9c2.6-8.5,4.9-17.1,6.4-25.8
			C1600.4,1540.4,1600.5,1522.9,1595.1,1506z" />
    <ellipse class="st3" cx="1180.1" cy="1803" rx="245.3" ry="35.3" />
    <g>
			<path class="st4" d="M872.6,1156.8v98.8c0,25.9,21,46.9,46.9,46.9h433c25.9,0,46.9-21,46.9-46.9v-98.8H872.6z" />
      <path class="st4" d="M1393,1231.6H884.6V894.4c0-29.8,24.1-53.9,53.9-53.9h400.6c29.8,0,53.9,24.1,53.9,53.9V1231.6z" />
      <g>
				<path class="st5" d="M1146.4,396.4c-43.6,6.5-79.7,46.7-81.5,90.7c-0.7,16.6,3,33.1,6.1,49.4c3.9,20,7,40.5,4.2,60.7
					c-2.7,19-10.5,36.8-18.2,54.3c-49.1,111.2-124.9,193.1-130.5,314.6c-1.3,29.1,2.9,59.6,19,83.9c8.6,13,20.2,23.7,32.7,32.9
					c64.9,47.4,150.8,52,231.2,51c54.7-0.7,115-5.5,153.3-44.5c43-43.8,41.7-114.7,24.5-173.6c-28.5-97.5-91.5-182.7-115.3-281.4
					c-12.1-50.1-13.6-102.1-21.4-153c-4.6-30.2-14.7-64.3-42.7-76.5C1188.2,396.3,1167.4,393.3,1146.4,396.4z" />
        <path class="st6" d="M1387.1,915.8c-28.5-97.5-91.5-182.7-115.3-281.4c-12.1-50.1-13.6-102.1-21.4-153
					c-3.8-24.6-11.2-51.7-28.9-67.6c-11.9,12.3-24.3,24.1-38.3,34c-18.9,13.3-41,23-64.1,23.8c4.4-8.9,8.7-17.9,13.1-26.8
					c-19.1,17.9-42.1,35.1-67.2,39.2c-0.1,1.1-0.2,2.1-0.2,3.2c-0.7,16.6,3,33.1,6.1,49.4c3.9,20,7,40.5,4.2,60.7
					c-2.7,19-10.5,36.8-18.2,54.3c-49.1,111.2-124.9,193.1-130.5,314.6c-1.3,29.1,2.9,59.6,19,83.9c8.6,13,20.2,23.7,32.7,32.9
					c64.9,47.4,150.8,52,231.2,51c54.7-0.7,115-5.5,153.3-44.5C1405.6,1045.6,1404.3,974.6,1387.1,915.8z" />
        <path class="st7" d="M1212.2,501.2c-1,84.4-9.4,116-64.4,115.9c-54.4-0.1-59.5-115.9-59.5-115.9c4.1,9.9,8,19.4,15.3,27.2
					c21.1-2,35.4-17.7,55-25.8c-5.6,12.9-13.3,22.8-23.8,32.2C1161.6,529.3,1191.9,519.4,1212.2,501.2z" />
        <circle class="st0" cx="1111.7" cy="543" r="31.8" />
        <circle class="st0" cx="1186" cy="543" r="31.8" />
        <g>
					<path class="st8" d="M1116,511.6c-11.8,13.8-23.1,28-34,42.4c1.4,3.7,3.4,7,5.9,9.9c9.7-17.6,19.8-35.1,30.8-51.9
						C1117.8,511.9,1116.9,511.7,1116,511.6z" />
          <path class="st8" d="M1132.4,519c-7.5,8.8-14.1,18.5-21.1,27.9c-5.7,7.6-11.6,15-17.8,22.2c4.6,3.2,10.2,5.3,16.2,5.6
						c9.1-17.2,17.9-34.4,26.5-51.9C1135.1,521.5,1133.8,520.2,1132.4,519z" />
          <path class="st8" d="M1186,511.3c-0.2,0-0.4,0-0.6,0c-9.7,15.3-18.6,31.1-27.2,47.1c1.6,2.9,3.6,5.5,6,7.7
						c7.8-18.4,15.9-36.6,24.3-54.7C1187.7,511.3,1186.9,511.3,1186,511.3z" />
          <path class="st8" d="M1209.2,521.3c-13.7,16-27.4,31.9-41.1,47.9c3.8,2.6,8.3,4.4,13.1,5.2c10.2-16.7,20.3-33.4,30.5-50.1
						C1210.9,523.2,1210.1,522.3,1209.2,521.3z" />
				</g>
        <g>
					<path class="st9" d="M1256.3,951.2c-14.7-35.1,70.3-293.3,70.3-293.3l-150.1-53.7l-14.8-2.9v-3.6l-9.2,1.8l-9.2-1.8v3.6
						l-14.8,2.9l-150.1,53.7c0,0,85,258.3,70.3,293.3c-14.7,35.1-122.5,138.5-74.2,203.9c40.8,55.3,146.2,44.7,177.9,40.1
						c31.7,4.6,137.1,15.2,177.9-40.1C1378.8,1089.7,1271.1,986.3,1256.3,951.2z" />
          <path class="st10" d="M990.5,1037.9c-24,39.4-50.6,111-25.6,144.8c40.8,55.3,156,17.1,187.7,12.5
						c31.7,4.6,137.1,15.2,177.9-40.1c25.8-35,7-80.9-18.3-121.3C1207,1058.9,1096.2,1060.4,990.5,1037.9z" />
          <g>
						<path class="st11" d="M1073,1030c4.5-1.1,9.2-2.5,12.9-5.4c4.8-3.7,7.6-9.3,10-14.8c32.1-73.1,29.7-156.3,49.9-233.5
							c1.8-7,2.1-12.4,3.4-19.5c1.3-7.2,2.7-14.7,0.8-21.7s-8.1-13.5-15.4-13.3c-9.6,0.4-15,11.1-18.1,20.2
							c-8.5,24.9-15.5,50.4-21,76.2c-2.3,10.8-4.5,22-10.1,31.5s-15.7,17.3-26.8,16.8c-1.4-56.3-11.8-112.4-30.7-165.4
							c-3.1-8.8-7.1-18.2-15.4-22.6c-4.8-2.5-10.3-2.9-15.7-2.9c-4.1,0-8.2,0.1-12.2,0.5c19,59.3,76.8,245.8,64.4,275.2
							c-6.5,15.5-31,44.1-52.3,77C1021.3,1035.5,1047.9,1036.2,1073,1030z" />
            <path class="st9" d="M1123.4,732.6h-16.9c-5,0-9.6,3-11.6,7.7l-57.4,135.9L1005.1,657l-26.5,0.9c0,0-80.3,31.7-79.4,52.3
							s42.8,265.9,79.4,278.4c36.7,12.5,91.5,24.2,99,10.8c7.1-12.5,41-170.3,58-251.7C1137.3,739.9,1131.3,732.6,1123.4,732.6z" />
            <path class="st7" d="M1123.4,732.6h-16.9c-5,0-9.6,3-11.6,7.7l-49.7,117.5c-0.4,7.5,2.8,15.2,7.9,20.8
							c6.4,7,15.4,11.2,24.5,13.9c8.4,2.5,17.2,3.9,25.9,4.2c11.3-50.6,23.8-108.9,32.1-148.9
							C1137.3,739.9,1131.3,732.6,1123.4,732.6z" />
					</g>
          <g>
						<path class="st11" d="M1232.2,1030c-4.5-1.1-9.2-2.5-12.9-5.4c-4.8-3.7-7.6-9.3-10-14.8c-32.1-73.1-29.7-156.3-49.9-233.5
							c-1.8-7-2.1-12.4-3.4-19.5c-1.3-7.2-2.7-14.7-0.8-21.7s8.1-13.5,15.4-13.3c9.6,0.4,15,11.1,18.1,20.2
							c8.5,24.9,15.5,50.4,21,76.2c2.3,10.8,4.5,22,10.1,31.5s15.7,17.3,26.8,16.8c1.4-56.3,11.8-112.4,30.7-165.4
							c3.1-8.8,7.1-18.2,15.4-22.6c4.8-2.5,10.3-2.9,15.7-2.9c4.1,0,8.2,0.1,12.2,0.5c-19,59.3-76.8,245.8-64.4,275.2
							c6.5,15.5,31,44.1,52.3,77C1283.9,1035.5,1257.2,1036.2,1232.2,1030z" />
            <path class="st9" d="M1181.8,732.6h16.9c5,0,9.6,3,11.6,7.7l57.4,135.9l32.4-219.2l26.5,0.9c0,0,80.3,31.7,79.4,52.3
							c-0.9,20.6-42.8,265.9-79.4,278.4c-36.7,12.5-91.5,24.2-99,10.8c-7.1-12.5-41-170.3-58-251.7
							C1167.9,739.9,1173.9,732.6,1181.8,732.6z" />
            <path class="st7" d="M1181.8,732.6h16.9c5,0,9.6,3,11.6,7.7l49.7,117.5c0.4,7.5-2.8,15.2-7.9,20.8c-6.4,7-15.4,11.2-24.5,13.9
							c-8.4,2.5-17.2,3.9-25.9,4.2c-11.3-50.6-23.8-108.9-32.1-148.9C1167.9,739.9,1173.9,732.6,1181.8,732.6z" />
					</g>
          <g>
						<path class="st12" d="M1143.5,570.4v186.4l-137.4-27.1c-5.8-1.1-9.9-6.2-9.9-12.1V562c0-7.5,6.7-13.3,14.2-12.1L1143.5,570.4z
							" />
            <path class="st12" d="M1166.7,570.4v186.4l137.4-27.1c5.8-1.1,9.9-6.2,9.9-12.1V562c0-7.5-6.7-13.3-14.2-12.1L1166.7,570.4z"
            />
            <rect x="1143.5" y="570.4" class="st13" width="23.2" height="186.4" />
					</g>
          <path class="st7" d="M1116.6,1227.4c0,0,32.2-86.1-28.2-118.9c-27-14.7-60.1-11.6-84.7,6.7c-24.8,18.5-50.8,50.8-30.2,98.6
						c35,81.1,175.6,374,175.6,374s17.4,3.6,28.9-23.4C1189.5,1537.4,1116.6,1227.4,1116.6,1227.4z" />
          <path class="st14" d="M1152.8,1391.6c-22,46.5-23.6,100.1-24.7,151.7c0,0.2,0,0.4,0,0.7c12.8,26.9,21,43.8,21,43.8
						s17.4,3.6,28.9-23.4C1183.6,1551.2,1169.1,1470.6,1152.8,1391.6z" />
          <path class="st15" d="M1182,1468.4c0,0,20,49.1,17.7,65.3s-2,93.4-26.6,120.5c-24.7,27.1-22,36.4-29.5-79.4
						c0,0,31.3,7.2,32.7-29.8S1182,1468.4,1182,1468.4z" />
          <path class="st14" d="M1100.3,1150.2c-10.4,9.2-24.9,14.9-38.3,11.4c-10.6-2.7-23.9-9.8-30.5-1.2
						c27.4,15.3,54.7,33.2,71.2,59.9c9.4,15.3,14.8,32.6,20.1,49.8c4.5,14.6,9,29.2,13.5,43.8c-10.9-49.5-19.6-86.5-19.6-86.5
						s20.5-54.9-2-93.8C1110.4,1139.7,1105.8,1145.4,1100.3,1150.2z" />
          <path class="st10" d="M1073.2,1216.9c-4.2,2.7-6.7,6.7-10.3,10.1c-3.7,3.5-7.9,6.5-12.7,8.4c-10.7,4.2-22.9,3.4-32.9-2.2
						c-4.5-2.5-8.4,4.2-4,6.9c11.8,7.3,26.5,10.1,39.8,5.7c10.7-3.5,25.9-12.9,25.9-25.5C1079,1217.4,1075.7,1215.3,1073.2,1216.9z"
          />
          <path class="st10" d="M1090.4,1231.3c-1.4-1.1-3.9-1.2-5.2,0.3c-1.4,1.6-2.7,3.3-4.1,4.9c-1.6,2-1.7,4.7,0.4,6.4
						c2.1,1.6,4.8,0.9,6.3-1.2c1.2-1.8,2.4-3.5,3.6-5.3C1092.6,1234.8,1091.9,1232.5,1090.4,1231.3z" />
          <g>
						<path class="st7" d="M1290.6,1115.2c-24.6-18.3-57.7-21.4-84.7-6.7c-60.4,32.9-28.2,118.9-28.2,118.9s-23.6,421-12.1,448
							s28.9,23.4,28.9,23.4s91.3-403.9,126.3-485C1341.4,1166,1315.4,1133.7,1290.6,1115.2z" />
            <path class="st10" d="M1272.3,1199.5c-18.8,4.8-39.8,1.2-51.6-15.7c-3.2-4.6-10.7-0.5-7.7,4.5c12.6,20.5,41.1,32.5,63.7,21.5
							C1282.6,1207,1278.4,1198,1272.3,1199.5z" />
					</g>
				</g>
        <path class="st10" d="M1161.4,1576.1c0,0-20,49.1-17.7,65.3s2,93.4,26.6,120.5c24.7,27.1,22,36.4,29.5-79.4
					c0,0-31.3,7.2-32.7-29.8C1165.7,1615.7,1161.4,1576.1,1161.4,1576.1z" />
        <path class="st7" d="M1076.5,665.2c1.2-2.9,4.9-6.1,6.9-3.6c0.8,0.9,0.7,2.3,0.6,3.5c-0.7,8.3-1.3,16.7-2,25
					c-0.2,1.9-0.3,3.9,0.7,5.6s3.5,2.5,4.8,1.1c0.7-0.7,0.9-1.6,1-2.6c0.9-6.3-0.1-12.8,0.2-19.2c0.3-6.4,2.3-13.3,7.5-17
					c1-0.7,2.1-1.3,3.3-1.3c4,0,5.1,5.6,4.7,9.6c-0.7,8.6-1.3,17.2-2,25.8c-0.2,2.2-0.3,4.5,0.8,6.4c1.1,1.9,4,2.8,5.5,1.2
					c0.6-0.6,0.9-1.5,1.1-2.4c1.7-7.6,0.4-15.5,1.4-23.3c1-7.7,5.7-16.1,13.5-16.9c-0.7,12.1-1.4,24.3-2.1,36.4
					c-0.2,3.8,1,9.2,4.8,8.9c3.6-6.9,2.3-15.2,2.5-22.9s3.7-16.9,11.3-18.4c5.3,10.7,1.5,23.4-0.4,35.1c-1.4,8.1-1.8,16.3-1.3,24.5
					c0.7,12.7,3.1,27.2-5.3,36.7c-18,20.3-41-7.1-50.5-21.3C1069.6,715.7,1066.7,688,1076.5,665.2z" />
        <path class="st7" d="M1229.7,664.6c-1.2-2.9-4.9-6.1-6.9-3.6c-0.8,0.9-0.7,2.3-0.6,3.5c0.7,8.3,1.3,16.7,2,25
					c0.2,1.9,0.3,3.9-0.7,5.6c-1,1.6-3.5,2.5-4.8,1.1c-0.7-0.7-0.9-1.6-1-2.6c-0.9-6.3,0.1-12.8-0.2-19.2s-2.3-13.3-7.5-17
					c-1-0.7-2.1-1.3-3.3-1.3c-4,0-5.1,5.6-4.7,9.6c0.7,8.6,1.3,17.2,2,25.8c0.2,2.2,0.3,4.5-0.8,6.4c-1.1,1.9-4,2.8-5.5,1.2
					c-0.6-0.6-0.9-1.5-1.1-2.4c-1.7-7.6-0.4-15.5-1.4-23.3s-5.7-16.1-13.5-16.9c0.7,12.1,1.4,24.3,2.1,36.4c0.2,3.8-1,9.2-4.8,8.9
					c-3.6-6.9-2.3-15.2-2.5-22.9s-3.7-16.9-11.3-18.4c-5.3,10.7-1.5,23.4,0.4,35.1c1.4,8.1,1.8,16.3,1.3,24.5
					c-0.7,12.7-3.1,27.2,5.3,36.7c18,20.3,41-7.1,50.5-21.3C1236.6,715.2,1239.4,687.5,1229.7,664.6z" />
			</g>
      <rect x="866.2" class="st0" width="20.8" height="1228.1" />
      <rect x="1387.9" class="st0" width="20.8" height="1228.1" />
      <g>
				<path class="st16" d="M862.2,951.7L862.2,951.7l0,292.1h59.1c15,0,27.1-12.1,27.1-27.1v-178.8
					C948.4,990.3,909.8,951.7,862.2,951.7z" />
        <path class="st16" d="M1414.5,951.7c-47.6,0-86.2,38.6-86.2,86.2v175c0,17.1,13.8,30.9,30.9,30.9h55.3V951.7L1414.5,951.7z" />
			</g>
		</g>
    <path class="st1" d="M1801.1,1170.4c-6.3,27.1-12.9,54.1-18.3,81.4c-5.4,27.3-10.9,54.6-16.1,82c-10.3,54.1-20.6,108.2-30.5,162.4
			c-5.6,30.7-11.7,61.4-16.3,92.2c-1.2,7.8,10.4,11.5,12.2,3.4c6.2-27.2,11.1-54.6,16.3-81.9c5.2-27.4,10.5-54.7,15.6-82.1
			c10-54.2,20-108.4,29.6-162.7c5.5-30.9,9.8-61.8,14.3-92.8C1808.4,1168,1802.2,1165.9,1801.1,1170.4z" />
    <path class="st1" d="M2056.2,1388.8c-21.9,35.7-44,71.3-65.9,107c-10.8,17.6-21.6,35.1-32.2,52.8c-5.5,9.1-11,18.2-16.5,27.3
			c-5.3,8.7-12.5,17.8-15.5,27.6c-2,6.5,6.6,11.2,11.3,6.6c7.2-7.2,11.8-18,17-26.7c5.4-9.1,10.9-18.3,16.3-27.4
			c10.5-17.7,20.9-35.5,31.4-53.3c21.2-36.1,42.2-72.4,63.4-108.5C2068.9,1388.2,2059.7,1382.9,2056.2,1388.8z" />
	</g>
    <rect x="1134.8" y="543" class="st1" width="29" height="3.6" />
</g>
</svg>
